<svg xmlns="http://www.w3.org/2000/svg" width="27.384" height="29.624" viewBox="0 0 27.384 29.624">
  <g id="그룹_929" data-name="그룹 929" transform="translate(-0.75 -0.75)">
    <path id="사각형_93" data-name="사각형 93" d="M2-.75H23.884A2.753,2.753,0,0,1,26.634,2V17.413a2.753,2.753,0,0,1-2.75,2.75H2a2.753,2.753,0,0,1-2.75-2.75V2A2.753,2.753,0,0,1,2-.75ZM23.884,18.663a1.251,1.251,0,0,0,1.25-1.25V2A1.251,1.251,0,0,0,23.884.75H2A1.251,1.251,0,0,0,.75,2V17.413A1.251,1.251,0,0,0,2,18.663Z" transform="translate(1.5 1.5)" fill="#bc2d1e"/>
    <path id="패스_33" data-name="패스 33" d="M18.391,35.2a.75.75,0,0,1-.75-.75V27.485a.75.75,0,0,1,1.5,0v6.969A.75.75,0,0,1,18.391,35.2Z" transform="translate(-3.948 -6.074)" fill="#bc2d1e"/>
    <path id="선_31" data-name="선 31" d="M11.7.75H0A.75.75,0,0,1-.75,0,.75.75,0,0,1,0-.75H11.7a.75.75,0,0,1,.75.75A.75.75,0,0,1,11.7.75Z" transform="translate(8.593 29.624)" fill="#bc2d1e"/>
    <path id="선_32" data-name="선 32" d="M3.065.75H0A.75.75,0,0,1-.75,0,.75.75,0,0,1,0-.75H3.065a.75.75,0,0,1,.75.75A.75.75,0,0,1,3.065.75Z" transform="translate(7.361 7.701)" fill="#bc2d1e"/>
    <path id="선_33" data-name="선 33" d="M8.173.75H0A.75.75,0,0,1-.75,0,.75.75,0,0,1,0-.75H8.173a.75.75,0,0,1,.75.75A.75.75,0,0,1,8.173.75Z" transform="translate(7.361 12.809)" fill="#bc2d1e"/>
  </g>
</svg>
