<svg xmlns="http://www.w3.org/2000/svg" width="14.362" height="10.042" viewBox="0 0 14.362 10.042">
  <g id="ic_order03" transform="translate(59.5 -20.291)">
    <path id="패스_71" data-name="패스 71" d="M13.123,11.035l2.13-1.775a1.927,1.927,0,0,0,.608-1.3V7.313c0-.436,0-1.149,0-1.584V5.081a1.931,1.931,0,0,0-.609-1.3l-2.13-1.775a2.554,2.554,0,0,0-1.4-.507H2.293a.794.794,0,0,0-.792.791V5.729c0,.436,0,1.149,0,1.584V10.75a.8.8,0,0,0,.792.792h9.43A2.552,2.552,0,0,0,13.123,11.035Z" transform="translate(-61 18.791)" fill="#e8e8e8"/>
    <line id="선_70" data-name="선 70" x1="3.077" transform="translate(-50.436 25.312)" fill="none" stroke="#ff3e3e" stroke-linecap="round" stroke-linejoin="round" stroke-width="1.5"/>
  </g>
</svg>
