<svg xmlns="http://www.w3.org/2000/svg" width="13" height="15.889" viewBox="0 0 13 15.889">
  <g id="그룹_52" data-name="그룹 52" transform="translate(0.75 0.75)">
    <path id="패스_49" data-name="패스 49" d="M8.478,9.551H3.853a3.106,3.106,0,0,1-3.1-3.1V1.5a.75.75,0,1,1,1.5,0V6.448a1.6,1.6,0,0,0,1.6,1.6H8.478a1.6,1.6,0,0,0,1.6-1.6V1.5a.75.75,0,0,1,1.5,0V6.448A3.106,3.106,0,0,1,8.478,9.551Z" transform="translate(-1.5 -1.5)" fill="#c8c8cb"/>
    <path id="패스_50" data-name="패스 50" d="M16.421,26.548H14.9a2.527,2.527,0,0,1-2.275-2.715v-3.32a.75.75,0,0,1,1.5,0v3.32c0,.716.409,1.215.775,1.215h1.525a.75.75,0,0,1,0,1.5Z" transform="translate(-8.705 -13.04)" fill="#c8c8cb"/>
    <path id="패스_51" data-name="패스 51" d="M23.69,33.519a2.479,2.479,0,1,1,2.479-2.479A2.482,2.482,0,0,1,23.69,33.519Zm0-3.458a.979.979,0,1,0,.979.979A.98.98,0,0,0,23.69,30.061Z" transform="translate(-13.919 -18.381)" fill="#c8c8cb"/>
  </g>
</svg>
