<svg xmlns="http://www.w3.org/2000/svg" width="17.813" height="17.813" viewBox="0 0 17.813 17.813">
  <g id="그룹_133" data-name="그룹 133" transform="translate(0.111 0.111)">
    <path id="패스_90" data-name="패스 90" d="M9.657.75A8.907,8.907,0,1,1,.75,9.657,8.916,8.916,0,0,1,9.657.75Zm0,16.313A7.407,7.407,0,1,0,2.25,9.657,7.415,7.415,0,0,0,9.657,17.063Z" transform="translate(-0.861 -0.861)" fill="#c8c8cb"/>
    <path id="패스_91" data-name="패스 91" d="M24.163,15.165a.749.749,0,0,1-.237-.039l-3.5-1.168a.75.75,0,0,1-.513-.712v-5.5a.75.75,0,0,1,1.5,0v4.955l2.992,1a.75.75,0,0,1-.237,1.462Z" transform="translate(-11.863 -4.451)" fill="#c8c8cb"/>
  </g>
</svg>
