<svg id="그룹_140" data-name="그룹 140" xmlns="http://www.w3.org/2000/svg" width="14.5" height="15.443" viewBox="0 0 14.5 15.443">
  <path id="패스_92" data-name="패스 92" d="M13.678,1.5H3.823A2.323,2.323,0,0,0,1.5,3.824v6.465a2.322,2.322,0,0,0,2.323,2.322H6.584v4.332l3.655-4.332h3.439A2.323,2.323,0,0,0,16,10.289V3.824A2.323,2.323,0,0,0,13.678,1.5Z" transform="translate(-1.5 -1.5)" fill="#e8e8e8"/>
  <path id="패스_93" data-name="패스 93" d="M11.057,14.392a1.716,1.716,0,1,1,1.715-1.715A1.717,1.717,0,0,1,11.057,14.392Zm0-2.431a.716.716,0,1,0,.715.716A.716.716,0,0,0,11.057,11.961Z" transform="translate(-6.277 -7.205)" fill="#bc2d1e"/>
  <path id="선_135" data-name="선 135" d="M2.674.5H0A.5.5,0,0,1-.5,0,.5.5,0,0,1,0-.5H2.674a.5.5,0,0,1,.5.5A.5.5,0,0,1,2.674.5Z" transform="translate(8.186 5.471)" fill="#bc2d1e"/>
</svg>
