<svg xmlns="http://www.w3.org/2000/svg" width="13.224" height="16.85" viewBox="0 0 13.224 16.85">
  <g id="그룹_17" data-name="그룹 17" transform="translate(-189.5 -374.5)">
    <rect id="사각형_88" data-name="사각형 88" width="13.224" height="16.85" rx="3" transform="translate(189.5 374.5)" fill="#e8e8e8"/>
    <path id="선_16" data-name="선 16" d="M3.2.5H0A.5.5,0,0,1-.5,0,.5.5,0,0,1,0-.5H3.2a.5.5,0,0,1,.5.5A.5.5,0,0,1,3.2.5Z" transform="translate(196.965 378.766)" fill="#bc2d1e"/>
    <path id="선_17" data-name="선 17" d="M3.2.5H0A.5.5,0,0,1-.5,0,.5.5,0,0,1,0-.5H3.2a.5.5,0,0,1,.5.5A.5.5,0,0,1,3.2.5Z" transform="translate(196.965 381.965)" fill="#bc2d1e"/>
    <path id="선_18" data-name="선 18" d="M7.6.5H0A.5.5,0,0,1-.5,0,.5.5,0,0,1,0-.5H7.6a.5.5,0,0,1,.5.5A.5.5,0,0,1,7.6.5Z" transform="translate(192.419 386.018)" fill="#bc2d1e"/>
  </g>
</svg>
