<svg xmlns="http://www.w3.org/2000/svg" width="13.24" height="15.019" viewBox="0 0 13.24 15.019">
  <g id="그룹_138" data-name="그룹 138" transform="translate(-0.678 -0.679)">
    <rect id="사각형_90" data-name="사각형 90" width="13.24" height="15.019" rx="2" transform="translate(0.678 0.679)" fill="#e8e8e8"/>
    <path id="사각형_91" data-name="사각형 91" d="M0-.5H3.279a.5.5,0,0,1,.5.5V3.953a.5.5,0,0,1-.5.5H0a.5.5,0,0,1-.5-.5V0A.5.5,0,0,1,0-.5ZM2.779.5H.5V3.453H2.779Z" transform="translate(3.415 3.247)" fill="#bc2d1e"/>
    <path id="선_25" data-name="선 25" d="M8.458.5H0A.5.5,0,0,1-.5,0,.5.5,0,0,1,0-.5H8.458a.5.5,0,0,1,.5.5A.5.5,0,0,1,8.458.5Z" transform="translate(3.07 9.98)" fill="#bc2d1e"/>
    <path id="선_26" data-name="선 26" d="M8.458.5H0A.5.5,0,0,1-.5,0,.5.5,0,0,1,0-.5H8.458a.5.5,0,0,1,.5.5A.5.5,0,0,1,8.458.5Z" transform="translate(3.07 12.338)" fill="#bc2d1e"/>
    <path id="선_27" data-name="선 27" d="M.817.5H0A.5.5,0,0,1-.5,0,.5.5,0,0,1,0-.5H.817a.5.5,0,0,1,.5.5A.5.5,0,0,1,.817.5Z" transform="translate(9.932 3.946)" fill="#bc2d1e"/>
    <path id="선_28" data-name="선 28" d="M.817.5H0A.5.5,0,0,1-.5,0,.5.5,0,0,1,0-.5H.817a.5.5,0,0,1,.5.5A.5.5,0,0,1,.817.5Z" transform="translate(9.932 6.601)" fill="#bc2d1e"/>
  </g>
</svg>
