<svg xmlns="http://www.w3.org/2000/svg" width="11.5" height="20.494" viewBox="0 0 11.5 20.494">
  <g id="그룹_137" data-name="그룹 137" transform="translate(-1.499 -1)">
    <path id="패스_37" data-name="패스 37" d="M13.149,6.706a.5.5,0,0,1-.5-.5V2.724A1.726,1.726,0,0,1,14.373,1h1.849a.5.5,0,1,1,0,1H14.373a.725.725,0,0,0-.724.724V6.206A.5.5,0,0,1,13.149,6.706Z" transform="translate(-5.9)" fill="#bc2d1e"/>
    <path id="패스_38" data-name="패스 38" d="M1.5,20.053v5.088a5.75,5.75,0,1,0,11.5,0V20.053Z" transform="translate(-0.001 -9.397)" fill="#e8e8e8"/>
    <path id="패스_39" data-name="패스 39" d="M3.946,11.035A2.446,2.446,0,0,0,1.5,13.481v2H7.248V11.035Z" transform="translate(0 -4.829)" fill="#e8e8e8"/>
    <path id="패스_40" data-name="패스 40" d="M18.9,13.481a2.447,2.447,0,0,0-2.447-2.446h-3.3v4.451H18.9Z" transform="translate(-5.9 -4.829)" fill="#e8e8e8"/>
    <path id="패스_94" data-name="패스 94" d="M11.371,13.606H1.9a.5.5,0,0,1,0-1h9.474a.5.5,0,1,1,0,1Z" transform="translate(0.646 -2.45)" fill="#bc2d1e"/>
    <path id="패스_95" data-name="패스 95" d="M4.843,13.606H1.9a.5.5,0,0,1,0-1H4.843a.5.5,0,0,1,0,1Z" transform="translate(20.385 5.363) rotate(90)" fill="#bc2d1e"/>
  </g>
</svg>
