<svg xmlns="http://www.w3.org/2000/svg" width="14.5" height="13.923" viewBox="0 0 14.5 13.923">
  <g id="그룹_135" data-name="그룹 135" transform="translate(0 0)">
    <path id="패스_52" data-name="패스 52" d="M8.828,15.191V3.157A1.657,1.657,0,0,1,10.485,1.5h5.5a1.657,1.657,0,0,1,1.657,1.657V15.191" transform="translate(-5.986 -1.5)" fill="#e8e8e8"/>
    <path id="패스_53" data-name="패스 53" d="M4.189,13.166H3.157A1.657,1.657,0,0,0,1.5,14.822v6.087a1.657,1.657,0,0,0,1.657,1.656H14.343A1.656,1.656,0,0,0,16,20.909V14.822a1.656,1.656,0,0,0-1.657-1.656h-.907" transform="translate(-1.5 -8.642)" fill="#e8e8e8"/>
    <path id="선_47" data-name="선 47" d="M3.712.5H0A.5.5,0,0,1-.5,0,.5.5,0,0,1,0-.5H3.712a.5.5,0,0,1,.5.5A.5.5,0,0,1,3.712.5Z" transform="translate(5.508 8.007)" fill="#bc2d1e"/>
    <path id="선_48" data-name="선 48" d="M3.712.5H0A.5.5,0,0,1-.5,0,.5.5,0,0,1,0-.5H3.712a.5.5,0,0,1,.5.5A.5.5,0,0,1,3.712.5Z" transform="translate(5.508 10.442)" fill="#bc2d1e"/>
    <path id="선_49" data-name="선 49" d="M0,2.943a.5.5,0,0,1-.5-.5V0A.5.5,0,0,1,0-.5.5.5,0,0,1,.5,0V2.443A.5.5,0,0,1,0,2.943Z" transform="translate(7.25 2.502)" fill="#bc2d1e"/>
    <path id="선_50" data-name="선 50" d="M2.443.5H0A.5.5,0,0,1-.5,0,.5.5,0,0,1,0-.5H2.443a.5.5,0,0,1,.5.5A.5.5,0,0,1,2.443.5Z" transform="translate(6.028 3.723)" fill="#bc2d1e"/>
  </g>
</svg>
