<svg xmlns="http://www.w3.org/2000/svg" width="11.5" height="13.827" viewBox="0 0 11.5 13.827">
  <g id="그룹_136" data-name="그룹 136" transform="translate(-1.5 -1.5)">
    <path id="패스_34" data-name="패스 34" d="M1.5,22.91v3.909c0,1.38,2.575,2.5,5.75,2.5S13,28.2,13,26.819V22.91" transform="translate(0 -13.991)" fill="#e8e8e8"/>
    <path id="패스_35" data-name="패스 35" d="M1.5,9.559v3.909c0,1.38,2.575,2.5,5.75,2.5S13,14.848,13,13.468V9.559" transform="translate(0 -5.266)" fill="#e8e8e8"/>
    <path id="패스_36" data-name="패스 36" d="M13,4c0,1.381-2.574,2.5-5.75,2.5S1.5,5.38,1.5,4,4.075,1.5,7.25,1.5,13,2.619,13,4Z" fill="#e8e8e8"/>
    <path id="패스_96" data-name="패스 96" d="M1.5,13.468c0,1.175,2.193,2.128,4.9,2.128s4.9-.953,4.9-2.128" transform="translate(0.854 -3.831)" fill="#e8e8e8"/>
    <path id="패스_96_-_윤곽선" data-name="패스 96 - 윤곽선" d="M6.4,16.1C3.32,16.1,1,14.966,1,13.468a.5.5,0,1,1,1,0c0,.68,1.673,1.628,4.4,1.628s4.4-.948,4.4-1.628a.5.5,0,0,1,1,0C11.793,14.966,9.473,16.1,6.4,16.1Z" transform="translate(0.854 -3.831)" fill="#bc2d1e"/>
    <path id="패스_97" data-name="패스 97" d="M1.5,13.468c0,1.175,2.193,2.128,4.9,2.128s4.9-.953,4.9-2.128" transform="translate(0.854 -8.409)" fill="#e8e8e8"/>
    <path id="패스_97_-_윤곽선" data-name="패스 97 - 윤곽선" d="M6.4,16.1C3.32,16.1,1,14.966,1,13.468a.5.5,0,1,1,1,0c0,.68,1.673,1.628,4.4,1.628s4.4-.948,4.4-1.628a.5.5,0,0,1,1,0C11.793,14.966,9.473,16.1,6.4,16.1Z" transform="translate(0.854 -8.409)" fill="#bc2d1e"/>
  </g>
</svg>
