<?xml version="1.0" encoding="utf-8"?>
<!-- Generator: Adobe Illustrator 27.2.0, SVG Export Plug-In . SVG Version: 6.00 Build 0)  -->
<svg version="1.1" id="Layer_1" xmlns="http://www.w3.org/2000/svg" xmlns:xlink="http://www.w3.org/1999/xlink" x="0px" y="0px"
	 viewBox="0 0 390 50" style="enable-background:new 0 0 390 50;" xml:space="preserve">
<style type="text/css">
	.st0{fill:#B63528;}
	.st1{fill:#FFFFFF;}
</style>
<g>
	<polygon class="st0" points="3.76,39.68 21.56,46.67 21.56,40.39 9.61,35.69 9.61,21.7 20.55,26 31.58,21.66 31.58,39.75 
		26.2,41.87 26.2,48.16 37.44,43.75 37.44,10.8 19.85,3.89 19.85,10.19 32.32,15.08 20.55,19.71 9.61,15.42 9.61,10.33 15.22,8.13 
		15.22,1.84 3.76,6.34 	"/>
	<g>
		<path class="st1" d="M231.24,29.06h-3.69v-2.74h-8.04v-3.29h23.74v3.29h-12.01V29.06z M226.4,19.91
			c-1.15-1.13-1.72-2.47-1.72-4.04c0-1.6,0.58-2.96,1.72-4.09c1.14-1.1,2.53-1.64,4.17-1.64c1.57,0,2.92,0.55,4.04,1.64
			c1.15,1.12,1.72,2.48,1.72,4.09c0,1.57-0.57,2.92-1.72,4.04c-1.12,1.12-2.47,1.68-4.04,1.68
			C228.93,21.59,227.54,21.03,226.4,19.91z M227.88,29.91h3.68v7.6h18.54v3.51h-22.22V29.91z M228.92,14.19
			c-0.43,0.44-0.65,1.01-0.65,1.68c0,0.64,0.22,1.18,0.65,1.64c0.45,0.48,1,0.72,1.64,0.72c0.61,0,1.14-0.24,1.59-0.72
			c0.46-0.46,0.69-1.01,0.69-1.64c0-0.67-0.23-1.23-0.69-1.68c-0.46-0.47-0.99-0.69-1.59-0.69
			C229.92,13.5,229.37,13.72,228.92,14.19z M245.13,34.04h-10.01v-3.42h10.01V9.1h3.69v24.94H245.13L245.13,34.04z"/>
	</g>
	<g>
		<path class="st1" d="M189.73,29.06h-3.69v-2.74H178v-3.29h23.74v3.29h-12.01V29.06z M184.88,19.91c-1.15-1.13-1.72-2.47-1.72-4.04
			c0-1.6,0.57-2.96,1.72-4.09c1.15-1.1,2.54-1.64,4.17-1.64c1.58,0,2.92,0.55,4.05,1.64c1.14,1.12,1.72,2.48,1.72,4.09
			c0,1.57-0.58,2.92-1.72,4.04c-1.13,1.12-2.47,1.68-4.05,1.68C187.42,21.59,186.03,21.03,184.88,19.91z M186.36,29.91h3.69v7.6
			h18.54v3.51h-22.23V29.91z M187.4,14.19c-0.43,0.44-0.65,1.01-0.65,1.68c0,0.64,0.22,1.18,0.65,1.64c0.46,0.48,1,0.72,1.64,0.72
			c0.62,0,1.15-0.24,1.6-0.72c0.45-0.46,0.68-1.01,0.68-1.64c0-0.67-0.23-1.23-0.68-1.68c-0.46-0.47-0.99-0.69-1.6-0.69
			C188.4,13.5,187.86,13.72,187.4,14.19z M203.62,34.04H193.6v-3.42h10.02V9.1h3.68v24.94H203.62L203.62,34.04z"/>
	</g>
	<path class="st1" d="M278.14,8.9v27.85h-12.29V22.42c1.2-0.43,2.18-1.12,2.93-2.08c0.75-1.02,1.12-2.14,1.12-3.36
		c0-1.6-0.59-2.97-1.75-4.09c-1.15-1.1-2.52-1.64-4.13-1.64c-1.57,0-2.94,0.54-4.09,1.64c-1.12,1.15-1.68,2.51-1.68,4.09
		c0,1.23,0.36,2.34,1.07,3.36c0.73,0.96,1.67,1.65,2.84,2.08v14.33h-9.04v3.53h25.02h3.68V8.9H278.14z M264.01,19.34
		c-0.64,0-1.18-0.23-1.64-0.72c-0.43-0.46-0.64-1-0.64-1.64c0-0.67,0.21-1.23,0.64-1.68c0.46-0.46,1-0.68,1.64-0.68
		c0.64,0,1.19,0.22,1.64,0.68c0.48,0.45,0.71,1.01,0.71,1.68c0,0.64-0.24,1.18-0.71,1.64C265.2,19.1,264.64,19.34,264.01,19.34z"/>
	<polygon class="st1" points="343.27,25.75 340.27,27.62 333.67,17.06 326.9,27.99 324.02,26.03 330.83,15.02 324.05,15.02 
		324.05,11.65 343.51,11.65 343.51,15.02 336.35,15.02 	"/>
	<polygon class="st1" points="324.28,31.31 327.96,31.31 327.96,37.27 354.2,37.27 354.2,40.82 324.28,40.82 	"/>
	<polygon class="st1" points="348.87,21.4 340.75,21.4 340.75,17.94 348.87,17.94 348.87,8.97 352.56,8.97 352.56,33.83 
		348.87,33.83 	"/>
	<polygon class="st1" points="366.87,16.69 361.35,25.95 358.31,24.31 366.79,9.89 375.38,24.07 372.46,25.95 	"/>
	<polygon class="st1" points="364.23,32.68 381.32,32.68 381.32,31.2 356.98,31.2 356.98,27.8 381.32,27.8 381.32,8.9 385,8.9 
		385,35.81 367.91,35.81 367.91,37.47 386.24,37.47 386.24,40.98 364.23,40.98 	"/>
	<g>
		<polygon class="st1" points="312.38,15.77 312.38,8.9 308.71,8.9 308.71,23.27 290.21,23.27 290.21,20.54 303.49,20.54 
			303.49,17.33 290.21,17.33 290.21,15.02 303.73,15.02 303.73,11.57 286.52,11.57 286.52,26.71 308.71,26.71 312.38,26.71 
			312.38,19.38 320.35,19.38 320.35,15.77 		"/>
		<path class="st1" d="M307.38,30.94c-1.23-1.15-2.71-1.72-4.45-1.72c-1.71,0-3.18,0.58-4.41,1.72c-1.23,1.15-1.83,2.56-1.83,4.24
			c0,1.63,0.61,3.03,1.83,4.2c1.23,1.14,2.7,1.72,4.41,1.72c1.7,0,3.19-0.57,4.45-1.72c1.25-1.17,1.88-2.57,1.88-4.2
			C309.26,33.5,308.63,32.09,307.38,30.94z M304.94,36.91c-0.53,0.53-1.2,0.81-2,0.81c-0.77,0-1.43-0.27-1.96-0.81
			c-0.51-0.47-0.76-1.05-0.76-1.72c0-0.7,0.25-1.31,0.76-1.85c0.54-0.5,1.19-0.75,1.96-0.75c0.8,0,1.47,0.25,2,0.75
			c0.53,0.51,0.8,1.13,0.8,1.85C305.73,35.86,305.47,36.43,304.94,36.91z"/>
	</g>
	<g>
		<path class="st1" d="M155.81,23.03c1.62,0,3.01-0.57,4.17-1.72c1.18-1.14,1.78-2.49,1.78-4.07c0-1.64-0.59-3.02-1.78-4.16
			c-1.16-1.14-2.56-1.72-4.17-1.72c-1.6,0-2.97,0.57-4.13,1.72c-1.14,1.14-1.7,2.53-1.7,4.16c0,1.58,0.57,2.94,1.7,4.07
			C152.84,22.45,154.21,23.03,155.81,23.03z M154.15,15.51c0.46-0.46,1.01-0.69,1.66-0.69c0.65,0,1.2,0.23,1.66,0.69
			c0.48,0.47,0.73,1.04,0.73,1.72c0,0.65-0.25,1.21-0.73,1.67c-0.46,0.46-1.01,0.7-1.66,0.7c-0.65,0-1.2-0.24-1.66-0.7
			c-0.43-0.48-0.65-1.04-0.65-1.67C153.5,16.55,153.71,15.98,154.15,15.51z"/>
		<polygon class="st1" points="170.12,9.02 170.12,37.58 144.79,37.58 144.79,41.09 170.12,41.09 173.84,41.09 173.84,9.02 		"/>
	</g>
	<g>
		<path class="st1" d="M56.38,9.1h-3.64v4.65h-7.79v3.47h7.67c-1.97,0.77-3.36,2.69-3.36,4.93c0,2.93,2.35,5.3,5.26,5.3
			c2.91,0,5.26-2.38,5.26-5.3c0-2.24-1.39-4.17-3.36-4.93h7.13v-3.47h-7.17V9.1z M54.52,24.07c-1.04,0-1.9-0.86-1.9-1.92
			c0-1.05,0.86-1.92,1.9-1.92c1.05,0,1.91,0.87,1.91,1.92C56.42,23.22,55.57,24.07,54.52,24.07z"/>
		<polygon class="st1" points="72.11,9.15 68.71,9.15 64.9,9.15 64.9,40.82 68.71,40.82 68.71,12.81 72.11,12.81 72.11,41.03 
			75.84,41.03 75.84,9.15 		"/>
	</g>
	<g>
		<polygon class="st1" points="88.63,37.58 88.63,35.09 105.94,35.09 105.94,9.02 102.25,9.02 102.25,26.08 79.91,26.08 
			79.91,29.67 102.25,29.67 102.25,31.74 84.9,31.74 84.9,41.18 107.11,41.18 107.11,37.58 		"/>
		<path class="st1" d="M93.59,9.29H79.92v13.19h13.67V9.29z M89.88,18.93h-6.24v-6.09h6.24V18.93z"/>
	</g>
	<g>
		<polygon class="st1" points="120.24,30.44 116.39,30.44 116.39,41.19 139.17,41.19 139.17,37.62 120.24,37.62 		"/>
		<polygon class="st1" points="137.51,9 133.78,9 133.78,33.66 137.51,33.66 137.51,12.64 145.62,12.64 145.62,9 		"/>
		<path class="st1" d="M124.42,22.16c0-2.24-1.4-4.17-3.36-4.93h7.13v-3.47h-7.17V9.1h-3.65v4.65h-7.79v3.47h7.67
			c-1.96,0.77-3.37,2.69-3.37,4.93c0,2.93,2.36,5.3,5.26,5.3C122.05,27.46,124.42,25.09,124.42,22.16z M117.25,22.16
			c0-1.05,0.85-1.92,1.9-1.92c1.05,0,1.9,0.87,1.9,1.92c0,1.06-0.85,1.92-1.9,1.92C118.1,24.07,117.25,23.22,117.25,22.16z"/>
	</g>
</g>
</svg>
