<svg xmlns="http://www.w3.org/2000/svg" width="17.06" height="8.589" viewBox="0 0 17.06 8.589">
  <g id="그룹_64" data-name="그룹 64" transform="translate(-0.75 -0.75)">
    <path id="패스_62" data-name="패스 62" d="M5.889,5.743H1.5a.75.75,0,0,1-.75-.75V1.577a.75.75,0,0,1,1.5,0V4.243H5.139V1.577a.75.75,0,1,1,1.5,0V4.993A.75.75,0,0,1,5.889,5.743Z" transform="translate(0 -0.045)" fill="#fff"/>
    <path id="패스_63" data-name="패스 63" d="M5.889,13.934a.75.75,0,0,1-.75-.75V10.519H2.25v2.665a.75.75,0,0,1-1.5,0V9.769a.75.75,0,0,1,.75-.75H5.889a.75.75,0,0,1,.75.75v3.415A.75.75,0,0,1,5.889,13.934Z" transform="translate(0 -4.821)" fill="#fff"/>
    <path id="패스_64" data-name="패스 64" d="M30.481,5.743a.75.75,0,0,1-.75-.75V2.328H28.287a.75.75,0,0,1,0-1.5h2.195a.75.75,0,0,1,.75.75V4.993A.75.75,0,0,1,30.481,5.743Z" transform="translate(-15.617 -0.045)" fill="#fff"/>
    <path id="패스_65" data-name="패스 65" d="M33.549,5.743a.75.75,0,0,1-.75-.75V1.577a.75.75,0,0,1,.75-.75h2.195a.75.75,0,0,1,0,1.5H34.3V4.993A.75.75,0,0,1,33.549,5.743Z" transform="translate(-18.685 -0.045)" fill="#fff"/>
    <path id="선_55" data-name="선 55" d="M0,4.165a.75.75,0,0,1-.75-.75V0A.75.75,0,0,1,0-.75.75.75,0,0,1,.75,0V3.415A.75.75,0,0,1,0,4.165Z" transform="translate(14.865 4.948)" fill="#fff"/>
    <path id="선_56" data-name="선 56" d="M0,4.165a.75.75,0,0,1-.75-.75V0A.75.75,0,0,1,0-.75.75.75,0,0,1,.75,0V3.415A.75.75,0,0,1,0,4.165Z" transform="translate(14.865 4.948)" fill="#fff"/>
    <path id="선_57" data-name="선 57" d="M0,7.839a.75.75,0,0,1-.75-.75V0A.75.75,0,0,1,0-.75.75.75,0,0,1,.75,0V7.089A.75.75,0,0,1,0,7.839Z" transform="translate(10.059 1.5)" fill="#fff"/>
  </g>
</svg>
