<svg xmlns="http://www.w3.org/2000/svg" width="24.982" height="24.048" viewBox="0 0 24.982 24.048">
  <g id="그룹_49" data-name="그룹 49" transform="translate(0.75 0.75)">
    <path id="패스_52" data-name="패스 52" d="M8.828,23.673V4.183A2.683,2.683,0,0,1,11.511,1.5h8.911a2.683,2.683,0,0,1,2.683,2.683v19.49" transform="translate(-4.226 -1.5)" fill="none" stroke="#fff" stroke-linecap="round" stroke-linejoin="round" stroke-width="1.5"/>
    <line id="선_47" data-name="선 47" x2="6.012" transform="translate(8.923 12.967)" fill="none" stroke="#fff" stroke-linecap="round" stroke-linejoin="round" stroke-width="1.5"/>
    <line id="선_48" data-name="선 48" x2="6.012" transform="translate(8.923 16.912)" fill="none" stroke="#fff" stroke-linecap="round" stroke-linejoin="round" stroke-width="1.5"/>
    <path id="패스_53" data-name="패스 53" d="M5.855,13.166H4.183A2.683,2.683,0,0,0,1.5,15.848v9.857a2.683,2.683,0,0,0,2.683,2.682H22.3a2.682,2.682,0,0,0,2.683-2.682V15.848A2.682,2.682,0,0,0,22.3,13.166H20.83" transform="translate(-1.5 -5.84)" fill="none" stroke="#fff" stroke-linecap="round" stroke-linejoin="round" stroke-width="1.5"/>
    <line id="선_49" data-name="선 49" y2="3.957" transform="translate(11.741 4.051)" fill="none" stroke="#fff" stroke-linecap="round" stroke-linejoin="round" stroke-width="1.5"/>
    <line id="선_50" data-name="선 50" x2="3.957" transform="translate(9.763 6.03)" fill="none" stroke="#fff" stroke-linecap="round" stroke-linejoin="round" stroke-width="1.5"/>
  </g>
</svg>
