<svg xmlns="http://www.w3.org/2000/svg" width="25.05" height="24.116" viewBox="0 0 25.05 24.116">
  <g id="그룹_45" data-name="그룹 45" transform="translate(0.75 1.059)">
    <path id="패스_48" data-name="패스 48" d="M25.05,13.69a2.669,2.669,0,0,0-2.669-2.669H4.169a2.668,2.668,0,0,0-.026,5.336c0,.1-.013.2,0,.3l.688,7.562a3.514,3.514,0,0,0,3.424,3.127H18.3a3.514,3.514,0,0,0,3.424-3.127l.688-7.562a2.868,2.868,0,0,0,0-.3A2.668,2.668,0,0,0,25.05,13.69Z" transform="translate(-1.5 -5.042)" fill="none" stroke="#fff" stroke-linecap="round" stroke-linejoin="round" stroke-width="1.5"/>
    <line id="선_43" data-name="선 43" y1="5.338" x2="5.966" transform="translate(3.14 0)" fill="none" stroke="#fff" stroke-linecap="round" stroke-linejoin="round" stroke-width="1.5"/>
    <line id="선_44" data-name="선 44" x1="5.966" y1="5.338" transform="translate(14.444 0)" fill="none" stroke="#fff" stroke-linecap="round" stroke-linejoin="round" stroke-width="1.5"/>
    <line id="선_45" data-name="선 45" y2="2.512" transform="translate(8.635 13.188)" fill="none" stroke="#fff" stroke-linecap="round" stroke-linejoin="round" stroke-width="1.5"/>
    <line id="선_46" data-name="선 46" y2="2.512" transform="translate(14.915 13.188)" fill="none" stroke="#fff" stroke-linecap="round" stroke-linejoin="round" stroke-width="1.5"/>
  </g>
</svg>
