<svg xmlns="http://www.w3.org/2000/svg" width="17.06" height="16.547" viewBox="0 0 17.06 16.547">
  <g id="그룹_72" data-name="그룹 72" transform="translate(0.75 1.059)">
    <path id="패스_48" data-name="패스 48" d="M17.06,12.784A1.764,1.764,0,0,0,15.3,11.021H3.263a1.763,1.763,0,0,0-.017,3.525c0,.067-.008.132,0,.2l.454,5A2.322,2.322,0,0,0,5.96,21.809H12.6a2.322,2.322,0,0,0,2.262-2.066l.454-5a1.9,1.9,0,0,0,0-.2A1.762,1.762,0,0,0,17.06,12.784Z" transform="translate(-1.5 -7.07)" fill="none" stroke="#fff" stroke-linecap="round" stroke-linejoin="round" stroke-width="1.5"/>
    <line id="선_43" data-name="선 43" y1="3.527" x2="3.942" transform="translate(2.075 0)" fill="none" stroke="#fff" stroke-linecap="round" stroke-linejoin="round" stroke-width="1.5"/>
    <line id="선_44" data-name="선 44" x1="3.942" y1="3.527" transform="translate(9.543 0)" fill="none" stroke="#fff" stroke-linecap="round" stroke-linejoin="round" stroke-width="1.5"/>
    <line id="선_45" data-name="선 45" y2="1.66" transform="translate(5.705 8.713)" fill="none" stroke="#fff" stroke-linecap="round" stroke-linejoin="round" stroke-width="1.5"/>
    <line id="선_46" data-name="선 46" y2="1.66" transform="translate(9.855 8.713)" fill="none" stroke="#fff" stroke-linecap="round" stroke-linejoin="round" stroke-width="1.5"/>
  </g>
</svg>
