<svg xmlns="http://www.w3.org/2000/svg" width="14.74" height="15.886" viewBox="0 0 14.74 15.886">
  <g id="그룹_29" data-name="그룹 29" transform="translate(-0.75 -0.75)">
    <path id="사각형_93" data-name="사각형 93" d="M2-.75h9.24A2.753,2.753,0,0,1,13.99,2V7.93a2.753,2.753,0,0,1-2.75,2.75H2A2.753,2.753,0,0,1-.75,7.93V2A2.753,2.753,0,0,1,2-.75Zm9.24,9.93a1.251,1.251,0,0,0,1.25-1.25V2A1.251,1.251,0,0,0,11.24.75H2A1.251,1.251,0,0,0,.75,2V7.93A1.251,1.251,0,0,0,2,9.18Z" transform="translate(1.5 1.5)" fill="#fff"/>
    <path id="패스_33" data-name="패스 33" d="M18.391,31.8a.75.75,0,0,1-.75-.75V27.485a.75.75,0,0,1,1.5,0v3.565A.75.75,0,0,1,18.391,31.8Z" transform="translate(-10.27 -15.8)" fill="#fff"/>
    <path id="선_31" data-name="선 31" d="M5.984.75H0A.75.75,0,0,1-.75,0,.75.75,0,0,1,0-.75H5.984a.75.75,0,0,1,.75.75A.75.75,0,0,1,5.984.75Z" transform="translate(5.128 15.886)" fill="#fff"/>
    <path id="선_32" data-name="선 32" d="M1.568.75H0A.75.75,0,0,1-.75,0,.75.75,0,0,1,0-.75H1.568a.75.75,0,0,1,.75.75A.75.75,0,0,1,1.568.75Z" transform="translate(4.498 4.672)" fill="#fff"/>
    <path id="선_33" data-name="선 33" d="M4.181.75H0A.75.75,0,0,1-.75,0,.75.75,0,0,1,0-.75H4.181a.75.75,0,0,1,.75.75A.75.75,0,0,1,4.181.75Z" transform="translate(4.498 7.285)" fill="#fff"/>
  </g>
</svg>
