<svg xmlns="http://www.w3.org/2000/svg" width="15.56" height="12.547" viewBox="0 0 15.56 12.547">
  <g id="sideadm01_06" transform="translate(0.75 0.75)">
    <path id="패스_67" data-name="패스 67" d="M7.563,10.07a.82.82,0,0,0-.817-.817H5.515a2.131,2.131,0,0,0-1.37.6L2.053,12.135a2.431,2.431,0,0,0-.553,1.42v1.414a.82.82,0,0,0,.818.818H3.659" transform="translate(-1.5 -6.356)" fill="none" stroke="#fff" stroke-linecap="round" stroke-linejoin="round" stroke-width="1.5"/>
    <path id="패스_68" data-name="패스 68" d="M23.631,11h1.274a.82.82,0,0,0,.817-.817V2.318a.82.82,0,0,0-.817-.818H18.543a.821.821,0,0,0-.817.818V10.84" transform="translate(-11.664 -1.5)" fill="none" stroke="#fff" stroke-linecap="round" stroke-linejoin="round" stroke-width="1.5"/>
    <line id="선_59" data-name="선 59" x1="3.049" transform="translate(5.423 9.498)" fill="none" stroke="#fff" stroke-linecap="round" stroke-linejoin="round" stroke-width="1.5"/>
    <path id="패스_69" data-name="패스 69" d="M10.228,24.483a1.474,1.474,0,0,0-2.937,0c0,.045-.013.089-.013.135a1.482,1.482,0,1,0,2.964,0C10.242,24.571,10.232,24.528,10.228,24.483Z" transform="translate(-5.119 -15.052)" fill="none" stroke="#fff" stroke-linecap="round" stroke-linejoin="round" stroke-width="1.5"/>
    <path id="패스_70" data-name="패스 70" d="M27.845,24.551a1.476,1.476,0,0,0-2.95,0c0,.023-.007.044-.007.067a1.482,1.482,0,0,0,2.964,0C27.852,24.595,27.846,24.573,27.845,24.551Z" transform="translate(-16.15 -15.052)" fill="none" stroke="#fff" stroke-linecap="round" stroke-linejoin="round" stroke-width="1.5"/>
    <line id="선_60" data-name="선 60" x2="2.061" transform="translate(0.464 6.493)" fill="none" stroke="#fff" stroke-linecap="round" stroke-linejoin="round" stroke-width="1.5"/>
  </g>
</svg>
