<svg xmlns="http://www.w3.org/2000/svg" width="17.06" height="12.379" viewBox="0 0 17.06 12.379">
  <g id="그룹_66" data-name="그룹 66" transform="translate(-0.75 -0.75)">
    <path id="패스_66" data-name="패스 66" d="M12.575,13.129H2.358A1.611,1.611,0,0,1,.75,11.522V7.8c0-.471,0-1.244,0-1.716V2.357A1.61,1.61,0,0,1,2.359.75H12.574a3.519,3.519,0,0,1,2,.722L16.88,3.4a2.851,2.851,0,0,1,.93,1.982v.7c0,.322,0,.789,0,1.2V8.5a2.847,2.847,0,0,1-.929,1.984l-2.308,1.924A3.518,3.518,0,0,1,12.575,13.129ZM2.359,2.25a.107.107,0,0,0-.076.033.1.1,0,0,0-.032.074V6.082c0,.472,0,1.244,0,1.716v3.724a.111.111,0,0,0,.108.108H12.575a2.055,2.055,0,0,0,1.038-.376l2.307-1.923a1.362,1.362,0,0,0,.389-.832V7.285c0-.413,0-.878,0-1.2v-.7a1.366,1.366,0,0,0-.391-.831L13.612,2.625a2.057,2.057,0,0,0-1.038-.375Z" fill="#fff"/>
    <path id="선_58" data-name="선 58" d="M3.334.75H0A.75.75,0,0,1-.75,0,.75.75,0,0,1,0-.75H3.334a.75.75,0,0,1,.75.75A.75.75,0,0,1,3.334.75Z" transform="translate(11.32 6.94)" fill="#fff"/>
  </g>
</svg>
