<svg xmlns="http://www.w3.org/2000/svg" width="14.724" height="17.311" viewBox="0 0 14.724 17.311">
  <g id="그룹_16" data-name="그룹 16" transform="translate(-17.981 -376.538)">
    <path id="패스_23" data-name="패스 23" d="M11.117,6.535H13.49a1.21,1.21,0,0,1,.249.026,1.3,1.3,0,0,1,.232.072,1.184,1.184,0,0,1,.209.114,1.172,1.172,0,0,1,.183.15,1.238,1.238,0,0,1,.151.182,1.227,1.227,0,0,1,.185.442,1.2,1.2,0,0,1,.026.248V19.041a1.2,1.2,0,0,1-.026.248,1.226,1.226,0,0,1-.336.624,1.222,1.222,0,0,1-.392.264,1.241,1.241,0,0,1-.232.072,1.21,1.21,0,0,1-.249.025H2.734a1.211,1.211,0,0,1-.249-.025,1.228,1.228,0,0,1-.231-.072,1.21,1.21,0,0,1-.392-.264,1.209,1.209,0,0,1-.151-.183,1.186,1.186,0,0,1-.114-.209,1.231,1.231,0,0,1-.072-.232,1.2,1.2,0,0,1-.025-.248V7.769a1.2,1.2,0,0,1,.025-.248A1.222,1.222,0,0,1,1.6,7.289a1.246,1.246,0,0,1,.656-.657,1.289,1.289,0,0,1,.231-.072,1.211,1.211,0,0,1,.249-.026H5.107" transform="translate(17.231 372.825)" fill="none" stroke="#fff" stroke-linecap="round" stroke-linejoin="round" stroke-width="1.5"/>
    <path id="패스_24" data-name="패스 24" d="M16.408,3.746v.026a.974.974,0,0,0-.974-.974h-.457c0-.011,0-.021,0-.033a1.267,1.267,0,0,0-2.533,0c0,.012,0,.022,0,.033h-.456a.974.974,0,0,0-.975.974V3.746c0,.054.008-.09.016-.039a.39.39,0,0,0-.016.1v.649a.39.39,0,0,0,.39.39h4.611a.391.391,0,0,0,.39-.39V3.811a.36.36,0,0,0-.016-.1C16.4,3.656,16.408,3.8,16.408,3.746Z" transform="translate(11.631 375.788)" fill="none" stroke="#fff" stroke-linecap="round" stroke-linejoin="round" stroke-width="1.5"/>
    <line id="선_14" data-name="선 14" x2="1.852" transform="translate(24.417 384.652)" fill="none" stroke="#fff" stroke-linecap="round" stroke-linejoin="round" stroke-width="1.5"/>
    <line id="선_15" data-name="선 15" x2="1.852" transform="translate(24.417 388.561)" fill="none" stroke="#fff" stroke-linecap="round" stroke-linejoin="round" stroke-width="1.5"/>
  </g>
</svg>
