<svg xmlns="http://www.w3.org/2000/svg" width="13.805" height="16.627" viewBox="0 0 13.805 16.627">
  <g id="그룹_21" data-name="그룹 21" transform="translate(-0.75 -0.75)">
    <path id="패스_28" data-name="패스 28" d="M1.5,12.647V15.9a.728.728,0,0,0,.057.284.748.748,0,0,0,.157.233.712.712,0,0,0,.232.156.726.726,0,0,0,.285.058H13.073a.725.725,0,0,0,.285-.058.712.712,0,0,0,.232-.156.734.734,0,0,0,.157-.233A.721.721,0,0,0,13.8,15.9V4.559l-.765-.764-.765-.765-.765-.765L10.746,1.5H2.231a.733.733,0,0,0-.285.057.718.718,0,0,0-.232.156.748.748,0,0,0-.157.233.728.728,0,0,0-.057.284V12.647Z" fill="none" stroke="#fff" stroke-linecap="round" stroke-linejoin="round" stroke-width="1.5"/>
    <path id="패스_29" data-name="패스 29" d="M25.046,8.035H23.011V6" transform="translate(-12.814 -2.68)" fill="none" stroke="#fff" stroke-linecap="round" stroke-linejoin="round" stroke-width="1.5"/>
  </g>
</svg>
