<svg xmlns="http://www.w3.org/2000/svg" width="14.724" height="14.396" viewBox="0 0 14.724 14.396">
  <g id="그룹_62" data-name="그룹 62" transform="translate(-0.75 -0.75)">
    <path id="패스_61" data-name="패스 61" d="M14.724,7.948l-1.2,1.235.551,1.634-1.622.588-.214,1.712-1.716-.172L9.583,14.4l-1.471-.9-1.471.9-.935-1.45-1.717.172L3.776,11.4l-1.622-.588L2.7,9.183,1.5,7.948,2.7,6.713,2.154,5.078,3.776,4.49,3.99,2.778l1.716.172L6.641,1.5l1.471.9,1.471-.9.936,1.45,1.716-.172.214,1.712,1.622.588L13.52,6.713Z" fill="none" stroke="#fff" stroke-linecap="round" stroke-linejoin="round" stroke-width="1.5"/>
  </g>
</svg>
