<svg xmlns="http://www.w3.org/2000/svg" width="20.516" height="15.762" viewBox="0 0 20.516 15.762">
  <g id="그룹_37" data-name="그룹 37" transform="translate(-0.75 -0.75)">
    <path id="사각형_94" data-name="사각형 94" d="M4.666,0H14.35a4.666,4.666,0,0,1,4.666,4.666V9.6a4.666,4.666,0,0,1-4.666,4.666H4.667A4.667,4.667,0,0,1,0,9.6V4.666A4.666,4.666,0,0,1,4.666,0Z" transform="translate(1.5 1.5)" fill="none" stroke="#484951" stroke-linecap="round" stroke-linejoin="round" stroke-width="1.5"/>
    <path id="패스_42" data-name="패스 42" d="M18.856,12.841H17.81a1.38,1.38,0,0,1,0-2.761h1.045a1.381,1.381,0,0,1,1.381,1.38" transform="translate(-7.325 -4.21)" fill="none" stroke="#bc2d1e" stroke-linecap="round" stroke-linejoin="round" stroke-width="1.5"/>
    <path id="패스_43" data-name="패스 43" d="M17.81,15.5h1.045a1.38,1.38,0,1,1,0,2.761H17.81a1.38,1.38,0,0,1-1.38-1.381" transform="translate(-7.325 -6.869)" fill="none" stroke="#bc2d1e" stroke-linecap="round" stroke-linejoin="round" stroke-width="1.5"/>
    <line id="선_37" data-name="선 37" y1="0.769" transform="translate(11.007 4.374)" fill="none" stroke="#bc2d1e" stroke-linecap="round" stroke-linejoin="round" stroke-width="1.5"/>
    <line id="선_38" data-name="선 38" y1="0.77" transform="translate(11.007 12.118)" fill="none" stroke="#bc2d1e" stroke-linecap="round" stroke-linejoin="round" stroke-width="1.5"/>
    <line id="선_39" data-name="선 39" x1="2.547" transform="translate(17.884 8.631)" fill="none" stroke="#484951" stroke-linecap="round" stroke-linejoin="round" stroke-width="1.5"/>
    <line id="선_40" data-name="선 40" x1="2.547" transform="translate(1.585 8.631)" fill="none" stroke="#484951" stroke-linecap="round" stroke-linejoin="round" stroke-width="1.5"/>
  </g>
</svg>
