<svg xmlns="http://www.w3.org/2000/svg" width="15.67" height="17.863" viewBox="0 0 15.67 17.863">
  <g id="그룹_1068" data-name="그룹 1068" transform="translate(0.255 -0.25)">
    <path id="패스_969" data-name="패스 969" d="M12.415,23.215a1.939,1.939,0,1,1-1.94-1.94,1.939,1.939,0,0,1,1.94,1.94" transform="translate(-2.896 -7.791)" fill="#fff" stroke="#bc2d1e" stroke-width="1.5"/>
    <path id="패스_970" data-name="패스 970" d="M12.415,23.215a1.939,1.939,0,1,1-1.94-1.94A1.939,1.939,0,0,1,12.415,23.215Z" transform="translate(-2.896 -7.791)" fill="rgba(0,0,0,0)" stroke="#484951" stroke-linecap="round" stroke-linejoin="round" stroke-width="1.5"/>
    <path id="패스_971" data-name="패스 971" d="M8.605,3.74A4.935,4.935,0,0,0,3.67,8.675V13.42h9.871V8.675A4.935,4.935,0,0,0,8.605,3.74" transform="translate(-1.026 -1.053)" fill="#fff" stroke="#bc2d1e" stroke-width="1.5"/>
    <path id="패스_972" data-name="패스 972" d="M8.605,3.74A4.935,4.935,0,0,0,3.67,8.675V13.42h9.871V8.675A4.935,4.935,0,0,0,8.605,3.74Z" transform="translate(-1.026 -1.053)" fill="#bc2d1e" stroke="#bc2d1e" stroke-linecap="round" stroke-linejoin="round" stroke-width="1.5"/>
    <path id="패스_973" data-name="패스 973" d="M14.159,22.518H1l1.644-3.057h9.871Z" transform="translate(0 -7.094)" fill="#bc2d1e" stroke="#bc2d1e" stroke-width="1.5"/>
    <path id="패스_974" data-name="패스 974" d="M2.644,19.461h0Z" transform="translate(0 -7.094)" fill="#bc2d1e" stroke="#fff" stroke-linecap="round" stroke-width="1.5"/>
    <line id="선_237" data-name="선 237" y1="1.688" transform="translate(7.58 1)" fill="#fff" stroke="#bc2d1e" stroke-width="1.5"/>
    <line id="선_238" data-name="선 238" y1="1.688" transform="translate(7.58 1)" fill="none" stroke="#bc2d1e" stroke-linecap="round" stroke-linejoin="round" stroke-width="1.5"/>
  </g>
</svg>
